<svg width="21" height="16" viewBox="0 0 21 16" fill="none" xmlns="http://www.w3.org/2000/svg">
<g id="Social Media Icon Square/YouTube">
<g id="Group 73">
<path id="YouTube" d="M11.2884 14.5261L7.22617 14.4501C5.91092 14.4237 4.5924 14.4765 3.30294 14.2024C1.34138 13.7929 1.20241 11.785 1.057 10.1008C0.856641 7.73292 0.934207 5.3221 1.31232 2.97403C1.52577 1.65651 2.3658 0.870341 3.66488 0.78479C8.05023 0.474315 12.4647 0.51111 16.8404 0.655958C17.3025 0.669236 17.7678 0.741812 18.2235 0.824423C20.4728 1.22734 20.5276 3.50274 20.6734 5.41819C20.8189 7.35342 20.7575 9.29857 20.4795 11.2206C20.2566 12.812 19.8299 14.1466 18.0296 14.2754C15.7738 14.4439 13.5698 14.5795 11.3077 14.5363C11.3078 14.5261 11.2948 14.5261 11.2884 14.5261ZM8.90019 10.4971C10.6001 9.49968 12.2676 8.51889 13.9577 7.52817C12.2547 6.53076 10.5904 5.54997 8.90019 4.55924V10.4971Z" fill="#4A3AFF"/>
</g>
</g>
</svg>
